<svg width="24" height="24" viewBox="0 0 24 24" fill="none" xmlns="http://www.w3.org/2000/svg">
<rect opacity="0.01" width="24" height="24" fill="black"/>
<path fill-rule="evenodd" clip-rule="evenodd" d="M15.3 2.33018L19.74 7.33018C19.9067 7.51358 19.9994 7.75234 20 8.00018V19.5002C19.9921 20.1712 19.7179 20.8116 19.2378 21.2804C18.7577 21.7493 18.111 22.0082 17.44 22.0002H6.56C5.88899 22.0082 5.24229 21.7493 4.76218 21.2804C4.28208 20.8116 4.00791 20.1712 4 19.5002V4.50018C4.00791 3.82917 4.28208 3.18879 4.76218 2.71993C5.24229 2.25108 5.88899 1.99218 6.56 2.00018H14.56C14.8422 2.00085 15.1109 2.1207 15.3 2.33018ZM12 12.0002H9C8.44772 12.0002 8 12.4479 8 13.0002C8 13.5525 8.44772 14.0002 9 14.0002H12C12.5523 14.0002 13 13.5525 13 13.0002C13 12.4479 12.5523 12.0002 12 12.0002ZM9 18.0002C8.44772 18.0002 8 17.5525 8 17.0002C8 16.4479 8.44772 16.0002 9 16.0002H15C15.5523 16.0002 16 16.4479 16 17.0002C16 17.5525 15.5523 18.0002 15 18.0002H9ZM14 7.15018C13.9652 7.57975 14.2811 7.95794 14.71 8.00018H17.74L14 4.00018V7.15018Z" fill="black"/>
</svg>
