<svg width="21" height="21" viewBox="0 0 21 21" fill="none" xmlns="http://www.w3.org/2000/svg">
<path fill-rule="evenodd" clip-rule="evenodd" d="M11.2507 17.5H8.94337C5.5524 17.5 3.8569 17.5 2.80345 16.4748C1.75 15.4498 1.75 13.7998 1.75 10.5C1.75 7.20016 1.75 5.55026 2.80345 4.52512C3.8569 3.5 5.55241 3.5 8.94337 3.5H11.2507C13.1997 3.5 14.1743 3.5 14.9878 3.93875C15.8013 4.3775 16.3177 5.18167 17.3507 6.79001L17.9464 7.71751C18.8155 9.0706 19.25 9.74715 19.25 10.5C19.25 11.2528 18.8155 11.9294 17.9464 13.2825L17.3507 14.21C16.3177 15.8183 15.8013 16.6225 14.9878 17.0613C14.1743 17.5 13.1997 17.5 11.2507 17.5ZM6.125 6.17245C6.48743 6.17245 6.78125 6.44898 6.78125 6.7901V14.2059C6.78125 14.547 6.48743 14.8235 6.125 14.8235C5.76257 14.8235 5.46875 14.547 5.46875 14.2059V6.7901C5.46875 6.44898 5.76257 6.17245 6.125 6.17245Z" fill="black"/>
</svg>
