<svg width="21" height="21" viewBox="0 0 21 21" fill="none" xmlns="http://www.w3.org/2000/svg">
<g clip-path="url(#clip0_1019_27574)">
<path fill-rule="evenodd" clip-rule="evenodd" d="M2.26943e-07 10.1722C-0.000325065 9.21365 0.349056 8.28786 0.982623 7.56849C1.61619 6.84911 2.49042 6.38557 3.44138 6.26479C4.39234 6.14401 5.35469 6.37428 6.14798 6.91243C6.94126 7.45057 7.51099 8.25963 7.75031 9.18787H13.2497C13.4893 8.25958 14.0592 7.45055 14.8527 6.91243C15.6461 6.37431 16.6086 6.14404 17.5597 6.2648C18.5107 6.38556 19.3851 6.84906 20.0189 7.5684C20.6527 8.28774 21.0023 9.21353 21.0023 10.1722C21.0023 11.131 20.6527 12.0568 20.0189 12.7761C19.3851 13.4954 18.5107 13.9589 17.5597 14.0797C16.6086 14.2004 15.6461 13.9702 14.8527 13.4321C14.0592 12.8939 13.4893 12.0849 13.2497 11.1566H7.75031C7.50894 12.0828 6.93856 12.8895 6.14577 13.4258C5.35298 13.9621 4.39204 14.1913 3.44252 14.0707C2.493 13.9501 1.61988 13.4879 0.986332 12.7705C0.352787 12.053 0.00216779 11.1294 2.26943e-07 10.1722ZM3.9375 8.20349C3.41536 8.20349 2.9146 8.41092 2.54538 8.78013C2.17617 9.14934 1.96875 9.6501 1.96875 10.1722C1.96875 10.6944 2.17617 11.1951 2.54538 11.5644C2.9146 11.9336 3.41536 12.141 3.9375 12.141C4.45965 12.141 4.9604 11.9336 5.32962 11.5644C5.69883 11.1951 5.90625 10.6944 5.90625 10.1722C5.90625 9.6501 5.69883 9.14934 5.32962 8.78013C4.9604 8.41092 4.45965 8.20349 3.9375 8.20349ZM17.0625 8.20349C16.5404 8.20349 16.0396 8.41092 15.6704 8.78013C15.3012 9.14934 15.0938 9.6501 15.0938 10.1722C15.0938 10.6944 15.3012 11.1951 15.6704 11.5644C16.0396 11.9336 16.5404 12.141 17.0625 12.141C17.5846 12.141 18.0854 11.9336 18.4546 11.5644C18.8238 11.1951 19.0312 10.6944 19.0312 10.1722C19.0312 9.6501 18.8238 9.14934 18.4546 8.78013C18.0854 8.41092 17.5846 8.20349 17.0625 8.20349Z" fill="black"/>
</g>
<defs>
<clipPath id="clip0_1019_27574">
<rect width="21" height="21" fill="white"/>
</clipPath>
</defs>
</svg>
