<svg width="13" height="13" viewBox="0 0 13 13" fill="none" xmlns="http://www.w3.org/2000/svg">
  <path
    d="M13 12L13 10.6667L10.8054 10.6667L10.8054 12L13 12ZM9.39847 12L9.39847 10.6667L7.20362 10.6667L7.20362 12L9.39847 12ZM5.79666 12L5.79666 10.6667L3.60181 10.6667L3.60181 12L5.79666 12ZM2.19485 12L2.19485 10.6667L-8.37111e-07 10.6667L-9.53674e-07 12L2.19485 12ZM12.1558 10.1449L12.1558 8.28986L10.3552 8.28986L10.3552 6.95652L9.8487 6.95652L9.8487 8.28986L8.04779 8.28986L8.04779 10.1449L8.5543 10.1449L8.5543 8.81159L11.6493 8.81159L11.6493 10.1449L12.1558 10.1449ZM4.95249 10.1449L4.95249 8.28985L3.15158 8.28985L3.15158 6.95652L2.64508 6.95652L2.64508 8.28985L0.844174 8.28985L0.844174 10.1449L1.35068 10.1449L1.35068 8.81159L4.44598 8.81159L4.44598 10.1449L4.95249 10.1449ZM11.1991 6.43478L11.1991 5.10145L9.00452 5.10145L9.00452 6.43478L11.1991 6.43478ZM3.99576 6.43478L3.99576 5.10145L1.8009 5.10145L1.8009 6.43478L3.99576 6.43478ZM10.3552 4.57971L10.3552 3.18841L6.75339 3.18841L6.75339 1.85507L6.24689 1.85507L6.24689 3.18841L2.64508 3.18841L2.64508 4.57971L3.15158 4.57971L3.15158 3.71015L9.8487 3.71015L9.8487 4.57971L10.3552 4.57971ZM7.59757 1.33333L7.59757 4.81379e-07L5.40271 2.89498e-07L5.40271 1.33333L7.59757 1.33333Z"
    fill="black" />
</svg>
