<svg width="54" height="50" viewBox="0 0 54 50" fill="none" xmlns="http://www.w3.org/2000/svg">
  <path opacity="1"
    d="M51.3415 35.38L35.0749 6.1C32.889 2.16042 29.8645 0 26.5349 0C23.2053 0 20.1806 2.16042 17.9948 6.1L1.72813 35.38C-0.330623 39.1162 -0.559372 42.7 1.09271 45.5212C2.74479 48.3425 5.99813 49.8929 10.2681 49.8929H42.8015C47.0715 49.8929 50.3249 48.3425 51.977 45.5212C53.629 42.7 53.4003 39.0908 51.3415 35.38Z"
    fill="#FF0000" />
  <path opacity="1"
    d="M51.3415 35.38L35.0749 6.1C32.889 2.16042 29.8645 0 26.5349 0C23.2053 0 20.1806 2.16042 17.9948 6.1L1.72813 35.38C-0.330623 39.1162 -0.559372 42.7 1.09271 45.5212C2.74479 48.3425 5.99813 49.8929 10.2681 49.8929H42.8015C47.0715 49.8929 50.3249 48.3425 51.977 45.5212C53.629 42.7 53.4003 39.0908 51.3415 35.38Z"
    fill="#FF0000" />
  <path
    d="M26.5337 32.4062C25.4916 32.4062 24.6274 31.542 24.6274 30.5V17.7916C24.6274 16.7495 25.4916 15.8854 26.5337 15.8854C27.5758 15.8854 28.4399 16.7495 28.4399 17.7916V30.5C28.4399 31.542 27.5758 32.4062 26.5337 32.4062Z"
    fill="black" />
  <path
    d="M26.5339 40.6668C26.3814 40.6668 26.2034 40.6414 26.0255 40.616C25.873 40.5906 25.7205 40.5398 25.568 40.4635C25.4155 40.4127 25.263 40.3364 25.1105 40.2348C24.9834 40.1331 24.8564 40.0314 24.7293 39.9298C24.2718 39.4468 23.9922 38.786 23.9922 38.1252C23.9922 37.4643 24.2718 36.8035 24.7293 36.3206C24.8564 36.2189 24.9834 36.1173 25.1105 36.0156C25.263 35.9139 25.4155 35.8377 25.568 35.7868C25.7205 35.7106 25.873 35.6598 26.0255 35.6343C26.3559 35.5581 26.7118 35.5581 27.0168 35.6343C27.1947 35.6598 27.3472 35.7106 27.4997 35.7868C27.6522 35.8377 27.8047 35.9139 27.9572 36.0156C28.0843 36.1173 28.2114 36.2189 28.3384 36.3206C28.7959 36.8035 29.0755 37.4643 29.0755 38.1252C29.0755 38.786 28.7959 39.4468 28.3384 39.9298C28.2114 40.0314 28.0843 40.1331 27.9572 40.2348C27.8047 40.3364 27.6522 40.4127 27.4997 40.4635C27.3472 40.5398 27.1947 40.5906 27.0168 40.616C26.8643 40.6414 26.6864 40.6668 26.5339 40.6668Z"
    fill="black" />
</svg>
